<svg width="20" height="19" viewBox="0 0 20 19" fill="none" xmlns="http://www.w3.org/2000/svg">
<path d="M10 18C9.35501 17.428 8.62601 16.833 7.85501 16.2H7.84501C5.13001 13.98 2.05301 11.468 0.694012 8.45802C0.248011 7.50002 0.0110115 6.45802 1.14776e-05 5.40002C-0.00147023 4.68201 0.140523 3.97093 0.417654 3.30855C0.694785 2.64616 1.10147 2.04583 1.61382 1.54279C2.12617 1.03975 2.73387 0.644155 3.40122 0.379224C4.06858 0.114293 4.78214 -0.0146307 5.50001 2.42469e-05C6.68064 0.00188905 7.83585 0.343106 8.82801 0.983024C9.26398 1.26599 9.65843 1.60828 10 2.00002C10.344 1.61002 10.738 1.26802 11.173 0.983024C12.1647 0.342979 13.3197 0.0017428 14.5 2.42469e-05C15.2179 -0.0146307 15.9314 0.114293 16.5988 0.379224C17.2662 0.644155 17.8739 1.03975 18.3862 1.54279C18.8986 2.04583 19.3052 2.64616 19.5824 3.30855C19.8595 3.97093 20.0015 4.68201 20 5.40002C19.9898 6.45884 19.7532 7.50322 19.306 8.46302C17.947 11.473 14.871 13.984 12.156 16.2L12.146 16.208C11.374 16.837 10.646 17.432 10.001 18.008L10 18ZM5.50001 2.00002C4.56852 1.98837 3.67008 2.34487 3.00001 2.99202C2.68047 3.3059 2.42728 3.68081 2.25549 4.09448C2.0837 4.50814 1.99682 4.95212 2.00001 5.40002C2.01101 6.17002 2.18601 6.93002 2.51201 7.62802C3.15354 8.92672 4.01914 10.1021 5.06901 11.1C6.06001 12.1 7.20001 13.068 8.18601 13.882C8.45901 14.107 8.73701 14.334 9.01501 14.561L9.19001 14.704C9.45701 14.922 9.73301 15.148 10 15.37L10.013 15.358L10.019 15.353H10.025L10.034 15.346H10.044L10.062 15.331L10.103 15.298L10.11 15.292L10.121 15.284H10.127L10.136 15.276L10.8 14.731L10.974 14.588C11.255 14.359 11.533 14.132 11.806 13.907C12.792 13.093 13.933 12.126 14.924 11.121C15.9741 10.1236 16.8397 8.94856 17.481 7.65002C17.813 6.94602 17.991 6.17802 18.001 5.40002C18.0029 4.9534 17.9154 4.51092 17.7434 4.09871C17.5715 3.6865 17.3187 3.31291 17 3.00002C16.3312 2.34994 15.4326 1.99051 14.5 2.00002C13.9373 1.99524 13.38 2.10958 12.8647 2.33554C12.3494 2.56149 11.8877 2.89393 11.51 3.31102L10 5.05102L8.49001 3.31102C8.11232 2.89393 7.65064 2.56149 7.13531 2.33554C6.61999 2.10958 6.06268 1.99524 5.50001 2.00002Z" fill="white"/>
</svg>
