<svg width="20" height="18" viewBox="0 0 20 18" fill="none" xmlns="http://www.w3.org/2000/svg">
<path d="M7.94048e-08 5.40001C-0.000122982 4.68238 0.142796 3.97192 0.420403 3.31016C0.69801 2.6484 1.10474 2.0486 1.61681 1.54584C2.12889 1.04307 2.73604 0.647419 3.40279 0.382C4.06953 0.116581 4.78249 -0.0132789 5.5 1.05458e-05C6.34896 -0.00449795 7.18919 0.17148 7.96499 0.516281C8.74079 0.861082 9.43445 1.36683 10 2.00001C10.5655 1.36683 11.2592 0.861082 12.035 0.516281C12.8108 0.17148 13.651 -0.00449795 14.5 1.05458e-05C15.2175 -0.0132789 15.9305 0.116581 16.5972 0.382C17.264 0.647419 17.8711 1.04307 18.3832 1.54584C18.8953 2.0486 19.302 2.6484 19.5796 3.31016C19.8572 3.97192 20.0001 4.68238 20 5.40001C20 10.756 13.621 14.8 10 18C6.387 14.773 7.94048e-08 10.76 7.94048e-08 5.40001Z" fill="white"/>
</svg>
