<svg width="20" height="18" viewBox="0 0 20 18" fill="none" xmlns="http://www.w3.org/2000/svg">
<path fill-rule="evenodd" clip-rule="evenodd" d="M6.526 0.104022C6.83369 0.00154024 7.16631 0.00154024 7.474 0.104022L13 1.94602L18.289 0.183022C18.4844 0.117909 18.6925 0.100151 18.896 0.13121C19.0996 0.162268 19.2929 0.241255 19.46 0.361663C19.6271 0.482071 19.7632 0.640455 19.8571 0.823766C19.951 1.00708 19.9999 1.21007 20 1.41602V14.64C20 14.9549 19.9009 15.2618 19.7167 15.5172C19.5326 15.7726 19.2727 15.9635 18.974 16.063L13.474 17.896C13.166 17.999 12.834 17.999 12.526 17.896L7 16.054L1.711 17.817C1.51561 17.8821 1.30755 17.8999 1.10395 17.8688C0.900356 17.8378 0.707052 17.7588 0.539965 17.6384C0.372878 17.518 0.23679 17.3596 0.142912 17.1763C0.0490331 16.993 5.07437e-05 16.79 0 16.584V3.36002C2.91324e-05 3.04516 0.0991373 2.73829 0.283283 2.48289C0.467428 2.22749 0.727272 2.03652 1.026 1.93702L6.526 0.104022ZM6 14.28V2.38702L2 3.72102V15.613L6 14.279V14.28ZM8 2.38802V14.28L12 15.614V3.72002L8 2.38602V2.38802ZM14 3.72202V15.614L18 14.28V2.38702L14 3.72102V3.72202Z" fill="black"/>
</svg>
