<svg width="10" height="10" viewBox="0 0 10 10" fill="none" xmlns="http://www.w3.org/2000/svg">
<path fill-rule="evenodd" clip-rule="evenodd" d="M5.61975 4.99999L9.07313 1.55223C9.24235 1.38297 9.24235 1.10088 9.07313 0.93163C8.90391 0.762376 8.62187 0.762376 8.45265 0.93163L4.99927 4.37939L1.55215 0.93163C1.37666 0.756107 1.10089 0.756107 0.931666 0.93163C0.756176 1.10088 0.756176 1.3767 0.931666 1.55223L4.37878 4.99999L0.931666 8.45402C0.762444 8.62327 0.762444 8.90536 0.931666 9.07461C1.01941 9.16238 1.13223 9.19999 1.23877 9.19999C1.34532 9.19999 1.4644 9.15611 1.55215 9.07461L4.99927 5.62058L8.44638 9.07461C8.53413 9.16238 8.64694 9.19999 8.75349 9.19999C8.86004 9.19999 8.97912 9.15611 9.0606 9.07461C9.22982 8.90536 9.22982 8.62327 9.0606 8.45402L5.61975 4.99999Z" fill="black"/>
</svg>
