<svg width="193" height="35" viewBox="0 0 193 35" fill="none" xmlns="http://www.w3.org/2000/svg">
<path d="M19.416 17.824L19 18.784C18.9147 19.488 18.5947 19.872 18.04 19.936L17.816 20.384L16.728 21.056L16.472 21.376L15.928 21.888C15.736 21.9093 15.4907 21.952 15.192 22.016C14.6373 22.528 13.976 22.912 13.208 23.168L12.632 23.456C12.248 23.4987 11.6613 23.6587 10.872 23.936L10.264 24.32L9.656 24.224C9.272 24.3733 8.93067 24.448 8.632 24.448C8.39733 24.448 8.152 24.4053 7.896 24.32C7.896 24.448 7.77867 24.512 7.544 24.512C7.352 24.512 7.05333 24.4267 6.648 24.256H6.392L6.52 24.128L5.944 24.288L5.688 24.224L5.368 24.32L4.408 23.936L3.992 23.68L3.192 23.424L3.032 23.072C2.37067 22.9867 1.99733 22.6987 1.912 22.208V22.08L1.976 22.144C1.76267 21.9307 1.54933 21.5467 1.336 20.992C1.16533 20.9707 0.973333 20.768 0.76 20.384C0.568 19.9787 0.472 19.5733 0.472 19.168C0.472 18.912 0.482667 18.6347 0.504 18.336C0.418667 18.144 0.376 17.8667 0.376 17.504L0.536 16.96V16.224L0.792 16.096L0.824 15.904L1.24 14.464L1.656 13.536L1.912 12.864C1.95467 12.5653 2.136 12.2133 2.456 11.808L2.584 11.648L2.424 11.008L3.128 10.656C3.32 10.464 3.46933 10.3253 3.576 10.24L3.704 9.504L4.184 9.28L4.344 8.704C4.77067 8.66133 5.05867 8.56533 5.208 8.416C5.44267 8.07467 5.74133 7.82933 6.104 7.68L6.392 7.424L7.224 7.2L7.704 6.912L8.312 7.2C8.80267 7.09333 9.12267 7.04 9.272 7.04H9.624L9.816 7.104L10.2 7.136C10.7333 7.392 11.2453 7.57333 11.736 7.68L12.152 8.032L14.04 9.088L14.264 9.536L14.584 9.824L14.808 10.496L15 10.976L15.128 11.584L15.096 12.352C15.096 12.3947 15.0747 12.544 15.032 12.8V12.896C15.032 13.5573 14.4133 14.0373 13.176 14.336L12.536 13.92L12.184 13.44L11.992 12.768V12.288L11.896 11.776V10.976L11.992 10.624L11.832 10.368C11.7467 10.304 11.608 10.208 11.416 10.08L11.32 10.016C10.7013 9.84533 10.3813 9.67467 10.36 9.504H9.752L9.496 9.344L9.336 9.696L8.728 9.312L8.568 9.408L8.184 9.344L7.8 9.6C7.58667 9.536 7.384 9.504 7.192 9.504L6.776 10.08L5.88 10.88L5.112 11.936L4.952 12L4.728 12.704L4.344 12.96V13.248L3.736 14.176L3.448 15.456L3.48 15.584L3.192 16.096L3.384 16.608L3.032 16.896V17.024L2.904 17.12L2.936 18.016L2.808 18.688L3.064 19.104L3.128 19.296L3.416 19.552V20L3.768 20.48L3.64 20.704L4.088 21.152L4.12 21.312L5.272 21.728L5.24 21.92L6.072 22.016L6.392 22.304L7.128 22.048L7.48 22.432L7.672 22.4C7.928 22.1867 8.17333 22.08 8.408 22.08C8.472 22.08 8.58933 22.1013 8.76 22.144H9.176L9.4 22.304L9.688 22.176C9.90133 22.176 10.0613 22.1653 10.168 22.144C10.4667 21.8667 10.84 21.728 11.288 21.728C11.4587 21.5573 11.7573 21.472 12.184 21.472C12.2907 21.344 12.6 21.1947 13.112 21.024C13.368 21.024 13.5707 20.9707 13.72 20.864L13.976 20.448L14.456 20.32L14.904 20.096L15.288 19.712L15.864 19.456L17.56 17.824L18.584 17.28L19.416 17.824ZM33.269 11.04L32.949 11.456L33.205 12.224L32.789 12.704L32.629 13.376L32.533 13.536L32.597 13.696C32.597 13.9947 32.5223 14.2187 32.373 14.368L32.309 14.464V14.592C32.373 14.7413 32.405 14.88 32.405 15.008C32.405 15.1147 32.3943 15.1893 32.373 15.232L32.405 15.36L32.277 15.712L32.373 16.096L32.117 16.352L32.213 16.8L32.405 17.024L32.117 17.28V17.792L31.893 18.304L32.053 18.816L31.861 19.072L32.181 19.296L31.733 20.032L31.701 20.128L32.021 20.192L31.797 20.928V21.056C31.797 21.2053 31.7863 21.3227 31.765 21.408L31.797 21.504L32.309 21.568L32.725 22.208L32.501 22.688L32.853 22.656C32.981 22.912 33.0557 23.136 33.077 23.328L32.597 23.808C32.4477 23.9573 32.2343 24.1067 31.957 24.256L31.413 24.544L31.253 24.384L30.933 24.576L29.941 23.424V22.88C29.813 22.4533 29.749 22.0587 29.749 21.696V21.504L29.557 19.616L29.813 18.272L29.621 17.504L29.077 18.4L28.789 19.232L28.533 19.36L28.085 20.064L27.285 20.8L27.061 21.184L26.357 21.792L26.197 22.208L25.173 22.848L24.085 24.064L23.477 24.192L23.061 24.512C22.5277 24.4907 22.1223 24.288 21.845 23.904C20.885 23.4347 20.3837 22.7627 20.341 21.888L20.501 21.792L20.469 21.6L20.437 21.216L20.245 20.8L20.437 20.352L20.501 19.68L20.725 18.624C20.725 18.6027 20.725 18.56 20.725 18.496C20.7037 18.4533 20.693 18.4107 20.693 18.368C20.693 18.2827 20.7143 18.176 20.757 18.048C20.7357 18.0053 20.725 17.92 20.725 17.792C20.725 17.6427 20.789 17.3973 20.917 17.056L21.141 16.96C21.013 16.8533 20.949 16.736 20.949 16.608C20.949 16.5227 20.9597 16.4587 20.981 16.416C20.9597 16.352 20.949 16.2773 20.949 16.192C20.949 15.936 21.077 15.744 21.333 15.616C21.397 15.4027 21.5143 15.1893 21.685 14.976L21.525 14.72L21.909 14.24V14.112C21.909 13.7067 22.0477 13.3333 22.325 12.992L22.293 12.416L22.421 12.288C22.421 12.2667 22.421 12.2347 22.421 12.192C22.3997 12.1493 22.389 12.1173 22.389 12.096C22.389 11.968 22.4317 11.8613 22.517 11.776V11.584C22.6023 11.3707 22.8263 11.0507 23.189 10.624C23.5517 10.1973 23.8183 9.824 23.989 9.504L24.149 9.664L24.501 9.504L24.661 9.44L25.717 8.96L28.181 9.088V9.312L28.949 9.472C29.4397 9.472 29.7597 9.632 29.909 9.952C29.909 9.888 29.9197 9.81333 29.941 9.728C29.941 9.664 29.941 9.62133 29.941 9.6L30.613 10.208L31.221 10.336L32.373 10.048L32.789 10.848L33.269 11.04ZM30.229 12.704L30.101 12.48L29.845 12.416L28.853 11.616L28.213 11.52H27.701L27.637 11.456L27.381 11.552L27.093 11.392H26.261L26.357 11.52L25.621 11.776L25.493 11.936L25.397 11.968C25.013 12.288 24.7463 12.5547 24.597 12.768L24.373 13.536L24.245 13.824L24.565 14.272L24.021 14.688L24.085 14.816C23.8503 15.2213 23.733 15.616 23.733 16L23.477 16.32V16.896L23.221 17.184L23.157 17.472L23.061 17.536V17.984L22.965 18.144C22.965 18.4 22.9437 18.6027 22.901 18.752L22.965 18.912L22.677 19.52L22.805 19.712L22.581 20.032L22.805 20.64L22.453 21.088L22.517 21.696V21.792L22.645 21.856L22.805 21.824C22.9117 21.7173 23.0183 21.6213 23.125 21.536L23.061 21.28L23.509 21.216L23.605 20.992L25.493 19.456L25.685 19.392L25.909 18.848C26.037 18.8053 26.2183 18.72 26.453 18.592L26.645 18.08H26.901L26.805 17.536L27.253 17.472C27.2957 17.3867 27.3597 17.28 27.445 17.152C27.5517 17.024 27.6583 16.9067 27.765 16.8L29.397 14.624L29.653 14.144L29.621 14.016L29.845 13.664L29.909 13.312L30.197 13.056L30.229 12.704ZM64.0418 20.224C63.9351 20.5227 63.7964 20.7467 63.6258 20.896C63.5618 21.1307 63.4658 21.3013 63.3378 21.408C63.2311 21.6213 63.1031 21.7707 62.9538 21.856L62.8258 22.048C62.7404 22.176 62.6231 22.24 62.4738 22.24L62.3138 22.56H62.0898L61.9298 22.848L61.6738 22.944L61.4818 23.168L61.3218 23.296C61.0018 23.296 60.7351 23.392 60.5218 23.584C60.2444 23.6907 59.9564 23.744 59.6578 23.744C59.3591 23.744 59.0604 23.6693 58.7618 23.52C58.4204 23.4987 58.2498 23.4453 58.2498 23.36L57.8018 23.296L57.7058 23.2L57.5138 22.816L57.1618 22.528C56.9271 22.2507 56.7991 21.9947 56.7778 21.76C56.6284 21.5467 56.4791 21.1413 56.3298 20.544L56.0098 20.032V19.744L55.7858 18.784L55.8178 18.4L55.6258 17.408L55.7218 16.608L55.5618 16.384L55.2418 17.184C54.8364 17.632 54.5911 17.9093 54.5058 18.016C54.4418 18.1013 54.3564 18.144 54.2498 18.144C54.2284 18.144 54.1858 18.1333 54.1218 18.112L53.9298 18.464C53.9084 18.4853 53.8978 18.528 53.8978 18.592C53.8978 18.72 53.9724 18.7947 54.1218 18.816C54.0791 18.8587 53.9724 19.008 53.8018 19.264C53.7164 19.4347 53.6418 19.552 53.5778 19.616L53.4818 19.456L53.4178 19.904C53.1404 20.1173 52.9484 20.4373 52.8418 20.864C52.6284 21.1413 52.2978 21.536 51.8498 22.048L51.4338 22.496C51.3271 22.496 51.2738 22.5173 51.2738 22.56V22.624C51.1458 22.9227 50.9218 23.1573 50.6018 23.328L50.2178 23.808H49.9938L49.2258 24.096C48.5858 24.0533 48.1911 23.776 48.0418 23.264L48.0098 22.912L47.8178 22.496V22.144L47.5618 21.216V20.928L47.3698 20.608L47.4978 19.616C47.4764 19.5093 47.4658 19.36 47.4658 19.168C47.4658 18.9973 47.4764 18.88 47.4978 18.816L47.4658 18.624V18.496L47.3058 18.144L47.5618 17.536C47.5191 17.3653 47.4551 17.088 47.3698 16.704L47.4658 16.416L47.5618 15.488L47.3058 14.816L47.3698 14.272L47.2738 13.984C47.2524 13.92 47.1778 13.7173 47.0498 13.376L46.8258 13.504L46.4098 14.016L46.0258 14.368L45.2578 15.328L45.1938 15.68L44.6498 16.256L44.4258 16.704L44.2018 16.96C44.1378 17.4293 43.9031 17.76 43.4978 17.952L43.4658 18.4C43.3378 18.528 43.1991 18.6987 43.0498 18.912C42.9218 19.1253 42.8258 19.2533 42.7618 19.296C42.7191 19.3173 42.6338 19.3813 42.5058 19.488L42.1218 20.032C42.1218 20.3947 41.9831 20.6507 41.7058 20.8V20.992C41.5778 21.1627 41.4071 21.3333 41.1938 21.504L41.1618 21.44L41.0658 21.888C40.8951 21.888 40.7351 22.0907 40.5858 22.496L40.4898 22.624C40.4684 22.9653 40.2871 23.2213 39.9458 23.392L39.4978 23.808C39.1564 23.9787 38.9324 24.064 38.8258 24.064C38.2711 24.064 37.9084 23.6053 37.7378 22.688L37.6098 21.984C37.5884 21.9413 37.5778 21.8773 37.5778 21.792C37.5778 21.6427 37.6098 21.4933 37.6738 21.344L37.5138 20.736L37.5778 20.224L37.5138 19.712C37.5564 19.264 37.6311 18.9867 37.7378 18.88C37.6738 18.432 37.6418 18.176 37.6418 18.112V17.536C37.7271 17.3867 37.8338 17.1947 37.9618 16.96L37.7698 16.768C37.7271 16.5973 37.7057 16.5013 37.7057 16.48C37.7057 16.3307 37.8338 16.0747 38.0898 15.712L37.8658 15.104L37.9938 14.72L37.8018 13.792L37.8658 13.344L37.7057 12.64L37.7378 12.16L37.4498 11.584C37.8764 10.752 38.3351 10.336 38.8258 10.336C39.0818 10.336 39.3271 10.4427 39.5618 10.656L39.6258 10.976C39.9884 11.168 40.1698 11.456 40.1698 11.84C40.1698 11.776 40.1378 12 40.0738 12.512L39.9458 12.48L40.2338 13.024L40.0418 13.28L40.0098 13.408L40.2018 14.88L40.1378 16.128L40.0418 16.352L40.1698 16.864C40.2338 16.9493 40.2658 17.056 40.2658 17.184C40.2658 17.3547 40.1804 17.5253 40.0098 17.696C40.0098 17.9947 39.9564 18.24 39.8498 18.432L39.9458 19.392V19.776L39.9778 19.712L40.1698 19.424L40.6178 18.624H40.7138C40.8418 18.624 40.9804 18.4213 41.1298 18.016L41.3538 17.408C41.3964 17.28 41.5564 17.0773 41.8338 16.8L41.9618 16.224L42.3458 15.648L42.4738 15.2C42.5804 15.136 42.6871 15.0613 42.7938 14.976L42.8258 14.88C42.8898 14.7947 43.1244 14.5707 43.5298 14.208L43.7218 14.112L43.7858 13.792L43.9458 13.696C44.0524 13.248 44.3191 12.9493 44.7458 12.8L44.6178 12.704L44.7458 12.64C44.7244 12.6187 44.7138 12.5867 44.7138 12.544C44.7138 12.5013 44.7351 12.4373 44.7778 12.352L45.2898 12.128L45.3858 11.616H45.7378C45.7378 11.5947 45.7591 11.52 45.8018 11.392L46.4418 10.88C46.7404 10.7947 46.9431 10.752 47.0498 10.752C47.3058 10.752 47.6578 10.8267 48.1058 10.976L48.4258 11.424L48.5538 11.488L48.7138 11.872L49.1618 12.48V12.896L49.4498 13.216V13.696C49.6844 14.208 49.8018 14.6453 49.8018 15.008L49.7058 15.392L49.8978 15.936L49.5458 16.288L49.6738 16.992L49.6418 17.184L49.6098 17.344C49.5671 17.5573 49.5458 17.7173 49.5458 17.824C49.5458 17.9307 49.5991 18.144 49.7058 18.464L49.6098 18.816L49.7058 19.264L49.6098 19.36C49.6524 19.6587 49.7164 20.16 49.8018 20.864L49.7698 20.992L50.7938 19.872L51.1138 19.264C51.1991 19.136 51.3378 18.9333 51.5298 18.656V18.592C51.6151 18.2507 51.7538 18.016 51.9458 17.888C51.9458 17.76 52.0524 17.6 52.2658 17.408L52.5218 17.248C52.6071 16.8853 52.8311 16.5867 53.1938 16.352L53.3538 15.904L53.6418 15.52L53.9618 15.2C54.1538 15.0507 54.3031 14.816 54.4097 14.496L54.6658 14.112L54.7938 13.632L55.1458 13.44L55.4978 12.992L55.8498 12.224C55.7644 12.224 55.7218 12.2027 55.7218 12.16C55.7218 12.16 55.7431 12.1173 55.7858 12.032L56.0098 11.84L56.2658 11.328C56.6284 11.2 56.8311 11.136 56.8738 11.136C56.8738 11.136 56.9164 11.1573 57.0018 11.2L57.5778 11.232L58.0898 11.456L58.5378 11.968L58.6338 12.416L58.6018 12.768L58.4418 12.896L58.0898 13.568L57.9618 14.304C58.0684 14.4107 58.1218 14.6027 58.1218 14.88C58.0364 14.9867 57.9938 15.1253 57.9938 15.296L57.8658 15.552C57.9084 15.6587 57.9298 15.8293 57.9298 16.064C57.9298 16.256 57.9191 16.3947 57.8978 16.48L57.7698 16.64L57.8978 16.864L57.6738 17.152C57.8018 17.152 57.8658 17.2907 57.8658 17.568C57.9084 17.696 57.9298 17.7813 57.9298 17.824C57.9298 17.888 57.9084 17.9627 57.8658 18.048C57.9084 18.2613 57.9298 18.464 57.9298 18.656V18.72C57.9298 18.7627 58.0684 19.2 58.3458 20.032L58.4098 20.352L58.7618 20.736L58.9538 21.184L59.1458 21.28L59.2738 21.472L59.4338 21.504L59.7218 21.568L59.8818 21.536H59.9778C60.1911 21.536 60.4471 21.4507 60.7458 21.28C60.8311 21.0667 61.0551 20.8427 61.4178 20.608C61.4391 20.5013 61.5671 20.2987 61.8018 20L62.3458 19.616L62.5378 19.232C62.7084 19.1253 62.8898 19.072 63.0818 19.072C63.3164 19.072 63.5724 19.136 63.8498 19.264C63.9778 19.4773 64.0418 19.7973 64.0418 20.224ZM78.2295 19.264L77.8455 20.224L78.1015 20.864L77.9735 21.056L77.8455 21.568L77.5895 22.016L77.4615 22.08L77.3975 22.688L76.8215 22.752C76.5228 23.0293 76.2135 23.2533 75.8935 23.424L75.7015 23.392L75.2215 23.552L74.9335 23.584L74.3255 23.808L73.6215 23.488L73.5255 23.424L72.9815 23.456L73.1095 23.52L72.2135 23.392L71.4135 23.584L71.0935 23.296L70.4215 23.36L70.1655 23.168C70.1442 23.168 70.0588 23.1787 69.9095 23.2V23.392C69.9095 23.584 69.8775 23.776 69.8135 23.968L69.9095 24.576L69.6535 24.896C69.6962 25.3653 69.7175 25.7173 69.7175 25.952L69.6215 26.752L69.7495 27.968L69.4935 28.288L69.6215 28.768L69.5255 29.088L69.7175 29.184V29.664C69.7602 29.792 69.7815 29.888 69.7815 29.952C69.7815 30.144 69.6642 30.304 69.4295 30.432L69.5575 30.88L69.3975 31.136L69.3335 32.416C69.2695 33.9093 68.9388 34.656 68.3415 34.656C68.2135 34.656 67.8402 34.5707 67.2215 34.4L67.3175 33.44L67.1255 32.032L67.4455 31.456L67.4775 30.752L67.3495 29.792L67.6055 29.376L67.3175 28.64L67.5415 28.256L67.3495 27.616L67.6055 27.04C67.5628 26.912 67.4775 26.7947 67.3495 26.688C67.2428 26.5813 67.1895 26.5067 67.1895 26.464C67.1895 26.4 67.2642 26.336 67.4135 26.272C67.3922 26.208 67.3815 26.1013 67.3815 25.952C67.3815 25.6747 67.4455 25.312 67.5735 24.864L67.3815 24.544L67.4775 24.128L67.2535 23.84L67.5415 23.488L67.4135 22.56L67.6055 21.248L67.3815 20.832L67.7335 20.224L67.3495 19.872L67.5735 19.264L67.3495 19.104L67.3815 18.56L67.5735 17.888V17.76L67.6055 17.632V17.28L67.6375 17.152L67.4775 16.64L67.6375 16.096L67.4775 15.68L67.6055 15.2L67.4775 15.072L67.5735 14.432L67.4775 14.08L67.5415 13.76L67.4455 13.536L66.2935 14.048V13.856L66.0695 13.888L65.7175 14.208H65.4295L65.0455 14.72L64.7255 14.592L64.5655 14.912C63.5202 14.2933 62.9975 13.8027 62.9975 13.44C62.9975 13.184 63.0935 12.9707 63.2855 12.8L63.2535 12.32C63.8508 11.9787 64.4162 11.7973 64.9495 11.776L65.1735 11.552L66.1975 11.136L66.4215 10.912L67.3175 10.976L67.4775 10.912L67.7655 9.792L68.5335 9.952L69.0455 10.784L69.3335 10.496L69.9095 10.912C70.1868 10.912 70.4535 10.9653 70.7095 11.072L70.8695 11.36L71.0935 11.264L71.3495 11.456C71.4988 11.456 71.6162 11.4667 71.7015 11.488L71.6695 11.68L72.3735 11.456L72.7255 11.84L73.3335 12.032L73.7495 12.544L74.5175 13.024L74.5495 13.088L75.1575 13.28V13.472C75.3282 13.6 75.4562 13.7707 75.5415 13.984L75.7975 14.144L75.9895 14.496H76.3735V15.136L76.5975 15.36L76.6615 15.584L76.9815 15.648C77.0242 16.1387 77.1628 16.5547 77.3975 16.896V17.12L77.7175 17.44L77.6535 17.952L77.9095 18.528L78.0055 19.2L78.2295 19.264ZM75.8295 19.744L75.7975 19.584L75.8295 19.456L75.6375 18.88L75.7655 18.592L75.6375 18.336L75.6055 18.016L75.3495 17.504L75.2215 17.152L74.7415 16.32L74.3575 16L74.1335 15.456L73.8455 15.328L73.3335 14.656L72.8215 14.72L72.4375 14.208L72.1175 14.272L71.8935 13.856L71.7655 13.824H71.3175L70.9975 13.984L70.7415 13.728L70.4215 13.792L70.2935 13.568L69.7175 13.472L69.7495 13.856L69.6855 14.464L69.8135 14.816L70.2615 15.232L69.9095 16L69.9415 16.48L69.7815 17.44C69.8455 17.8453 69.9735 18.1867 70.1655 18.464L70.0375 18.816C70.0588 18.8373 70.0695 18.8587 70.0695 18.88C70.0695 18.944 69.9842 19.04 69.8135 19.168L70.0375 19.456L69.8775 19.84L69.8135 20.256L69.9095 20.704L69.8775 21.12H70.5495C70.6348 21.0773 70.7522 21.056 70.9015 21.056C71.0935 21.056 71.2642 21.12 71.4135 21.248C71.4348 21.248 71.4775 21.2373 71.5415 21.216C71.5842 21.216 71.6162 21.216 71.6375 21.216C71.7015 21.216 71.8188 21.2373 71.9895 21.28C72.1175 21.216 72.2348 21.184 72.3415 21.184C72.5122 21.184 72.6722 21.2267 72.8215 21.312H73.1095L73.3655 21.376L74.0055 21.184L74.5175 21.504C74.7095 21.568 74.7842 21.6 74.7415 21.6L75.3495 20.992L75.4135 20.544L75.5735 20.48L75.4775 20.224L75.7015 19.968L75.8295 19.744ZM86.2863 2.368C86.2863 2.624 86.1156 2.85867 85.7743 3.072V3.136C85.3689 3.62667 85.0169 3.904 84.7183 3.968L84.2383 4.544L83.9183 4.96L83.1823 5.152L82.8623 5.6L82.3503 5.856L81.5182 6.592L81.0063 6.112L81.1023 5.312L81.4543 4.736C81.4756 4.43733 81.6463 4.18133 81.9663 3.968V3.84L82.1583 3.712L82.1903 3.232L82.7023 3.104V2.816L83.0863 2.752C83.1716 2.32533 83.3529 2.016 83.6302 1.824L83.7263 1.76L83.9183 1.568L84.1743 0.799999C85.5823 1.14133 86.2863 1.664 86.2863 2.368ZM89.5503 19.328C89.5503 19.8187 89.4649 20.128 89.2943 20.256L89.1343 20.384L88.9743 20.832L88.4623 20.992C88.3129 21.3333 88.0889 21.6 87.7903 21.792L87.5023 21.888L87.0863 22.336L86.7023 22.432C86.5529 22.816 86.2436 23.0187 85.7743 23.04C85.7316 23.104 85.6356 23.232 85.4863 23.424C85.1663 23.6373 84.8356 23.7653 84.4943 23.808L84.3343 23.84L84.1102 24.128H83.4703L82.9583 24.512L81.6463 23.552L81.0383 22.304L81.0063 20.736L80.8783 20.352L81.2623 17.536L81.3903 17.408C81.3263 17.088 81.2943 16.7787 81.2943 16.48C81.2943 16.288 81.3583 15.8933 81.4863 15.296L81.6463 14.56C81.6036 14.432 81.5183 14.2933 81.3903 14.144L81.5823 13.536L81.6463 12.8L81.7103 12.704C81.6249 12.512 81.5716 12.2987 81.5503 12.064C81.5716 12.0213 81.5929 11.968 81.6143 11.904C81.6356 11.8187 81.6463 11.7547 81.6463 11.712C81.5823 11.52 81.5503 11.3387 81.5503 11.168C81.5503 10.656 81.8383 10.4213 82.4143 10.464L82.7983 10.496C83.0543 10.368 83.2143 10.304 83.2783 10.304C83.7049 10.304 83.9929 10.5387 84.1423 11.008V11.136C84.2276 11.392 84.2703 11.6373 84.2703 11.872C84.2703 12.064 84.2489 12.2027 84.2063 12.288L83.9823 13.888L84.2063 14.336C84.2063 14.72 84.0783 15.0613 83.8223 15.36L83.9503 15.744L83.5343 16.96C83.4916 17.4933 83.4383 17.8987 83.3743 18.176V18.976L83.1823 19.424L83.2143 19.744L83.1503 20.48L83.2143 21.056L83.6943 21.44L84.0783 21.376L84.1423 21.28L84.3983 21.312L84.8143 21.184L85.1663 20.832L85.2943 20.64L85.5183 20.608L85.5823 20.448L85.6783 20.32L85.8703 20.448L86.1903 20.128L86.3823 20.16L86.4463 19.936H86.5103L86.6063 19.68L86.8943 19.552L87.5023 19.264C87.9929 18.9227 88.4729 18.752 88.9423 18.752H89.0703C89.3049 18.9013 89.4649 19.0933 89.5503 19.328ZM111.73 18.816C111.73 18.9867 111.592 19.2107 111.314 19.488L110.962 20.032L110.834 20.672L110.546 20.768L110.482 20.96C110.141 21.0667 109.896 21.3333 109.746 21.76C109.512 22.0587 109.256 22.272 108.978 22.4C108.872 22.5067 108.776 22.5813 108.69 22.624L108.53 22.912L108.242 22.976L107.41 23.424L106.322 23.552L106.034 23.488L105.554 23.584L105.362 23.36C105.064 23.2107 104.85 23.0613 104.722 22.912C104.466 22.848 104.274 22.6453 104.146 22.304C103.784 21.8773 103.602 21.536 103.602 21.28V21.184L103.378 20.8L103.314 20.736L103.122 20.16L102.834 19.552L102.898 18.816L102.578 18.4L102.098 15.648C102.034 15.2853 102.002 14.976 102.002 14.72L101.938 14.56L101.778 14.336L101.49 14.72L100.338 15.936L99.9223 16.608L99.6983 17.056L99.3463 17.568L99.0903 17.824L99.1223 17.984L98.6743 18.976L98.4183 19.296L98.0983 19.36L97.8103 19.648C97.8103 20.0747 97.6076 20.352 97.2023 20.48L97.1383 20.544C96.9463 21.0133 96.7329 21.3013 96.4983 21.408L96.2103 21.856C95.7409 22.2827 95.4316 22.5493 95.2823 22.656C95.2183 22.8693 95.1009 23.0507 94.9303 23.2C94.8876 23.264 94.8129 23.3493 94.7063 23.456C94.6423 23.8187 94.3436 24.0747 93.8103 24.224L93.4583 24.32C93.0316 24.2987 92.6796 24.0533 92.4023 23.584L91.9223 22.784L92.0823 22.016L92.0182 21.6L92.0823 21.536L92.1143 21.12L91.7623 20.352L92.0182 19.968L91.8903 19.552L92.1143 19.104L92.1783 18.368L92.0503 18.24L92.3063 17.792L92.2103 17.568L92.1783 17.056L92.3063 16.096C92.2636 15.8827 92.2423 15.744 92.2423 15.68C92.2423 15.6373 92.2529 15.5947 92.2743 15.552C92.2743 15.488 92.2743 15.4453 92.2743 15.424L92.1143 15.168L92.2103 14.144L92.1783 13.792L92.2743 13.28L92.1463 12.416L92.7223 11.456C93.3836 11.5627 93.8423 11.712 94.0983 11.904C94.3543 12.0747 94.4823 12.3947 94.4823 12.864V13.152L94.7063 13.536L94.6102 14.208L94.7383 15.488L94.5143 16.096L94.6102 16.768V17.312L94.3543 17.664L94.5463 18.24L94.3543 18.592L94.3223 18.944L94.5143 19.296L94.2583 19.968L94.1623 20.256V20.544L94.3223 20.864L94.8663 20.32C94.8663 20 94.9729 19.7867 95.1863 19.68C95.2076 19.4667 95.2929 19.3067 95.4423 19.2L95.3463 19.104L95.7623 18.72L95.8583 18.592V18.304L96.3703 17.92L96.4983 17.6L96.7863 17.408L98.0343 16C97.9276 16.128 97.5756 16.5227 96.9783 17.184V17.248L97.0423 17.024L97.4583 16.544L97.7463 16V15.68L98.2263 15.52L98.2903 15.104L98.4183 14.976L98.4503 14.816V14.592L98.8983 14.144C98.8983 14.1013 98.8983 14.048 98.8983 13.984C98.8769 13.92 98.8663 13.8773 98.8663 13.856C98.8663 13.472 99.0796 13.2587 99.5063 13.216C99.6983 12.832 99.9863 12.608 100.37 12.544L100.562 12.256L100.626 12.192C100.818 11.9147 101.106 11.7227 101.49 11.616L101.778 11.264H102.546L102.93 11.712L103.282 11.904L103.314 12L103.538 12.064L103.602 12.736L104.146 13.056L103.922 13.76L104.274 14.528V15.424L104.53 16.64L104.594 17.792L104.882 18.464L105.074 19.296C105.202 19.424 105.298 19.6053 105.362 19.84L105.938 20V20.64L106.258 20.992V21.088L106.386 21.12L106.514 21.312L106.642 21.152C106.6 21.152 106.653 21.1627 106.802 21.184C107.037 21.184 107.282 20.9707 107.538 20.544L107.922 20.448L108.018 20.288C108.082 20.1173 108.21 19.9893 108.402 19.904L108.626 19.936L108.754 19.808L108.786 19.648L108.882 19.52C109.096 19.3707 109.234 19.1467 109.298 18.848L109.65 18.464L109.714 18.176L109.938 17.664L110.546 17.44L111.41 17.728L111.698 18.656C111.698 18.6773 111.709 18.6987 111.73 18.72C111.73 18.7627 111.73 18.7947 111.73 18.816ZM128.176 20.032L127.92 21.216L127.984 21.6L127.92 21.696C128.005 21.888 128.048 22.08 128.048 22.272C128.048 22.4 128.016 22.528 127.952 22.656V22.72C127.952 22.976 127.856 24.0213 127.664 25.856L127.6 26.464V26.592L127.536 26.72L127.504 26.848L127.536 27.04L127.44 27.136L127.344 27.328H127.216L127.248 27.488L127.184 27.68C127.184 27.8293 127.13 27.9787 127.024 28.128L126.864 28.64C126.8 28.8747 126.693 29.088 126.544 29.28C126.394 29.5573 126.128 29.9307 125.744 30.4L125.2 30.816L124.592 31.328L124.112 31.552L123.728 31.84L123.472 31.904C123.045 32.1387 122.565 32.2773 122.032 32.32L121.84 32.288L121.552 32.416V32.48C121.189 32.5653 120.88 32.608 120.624 32.608H119.376L118.608 32.448L117.936 32.576L117.616 32.288L116.656 32.192L116.016 31.616L115.536 31.36C114.682 31.04 114.192 30.4747 114.064 29.664L114.128 29.536L114.032 29.024C114.288 28.6187 114.522 28.4053 114.736 28.384C114.906 28.2773 115.077 28.224 115.248 28.224C115.248 28.224 115.44 28.256 115.824 28.32C116.229 28.384 116.645 28.4267 117.072 28.448L117.008 28.928L117.392 29.184V29.568L117.136 29.888L118.608 30.336L119.344 30.176V30.4L119.568 30.336H119.632C119.653 30.336 119.792 30.3573 120.048 30.4L120.08 30.528L120.4 30.368C120.656 30.24 121.168 30.176 121.936 30.176C122.064 30.0907 122.17 30.0053 122.256 29.92C122.277 29.92 122.33 29.9307 122.416 29.952C122.501 29.952 122.565 29.952 122.608 29.952C122.736 29.952 122.864 29.824 122.992 29.568C123.013 29.632 123.056 29.664 123.12 29.664C123.162 29.664 123.216 29.6427 123.28 29.6C123.344 29.5573 123.386 29.536 123.408 29.536H123.472L124.496 28.64L124.976 27.904L125.008 27.488L125.36 27.04L125.392 26.624L125.584 26.24L125.744 25.376L126 24.576C125.978 24.448 125.968 24.256 125.968 24C125.968 23.5307 126.032 23.0613 126.16 22.592L126.032 22.08V20.512L125.776 19.968V19.072L125.52 18.4L125.552 17.376L125.52 17.216L125.296 17.28L125.104 17.76L124.624 18.176L124.048 19.104L123.216 19.68L122.32 20.608C121.808 21.1413 121.21 21.6107 120.528 22.016L120.208 22.4L119.728 22.688L119.28 22.912L118.864 23.328L118.352 23.584C118.181 23.7547 117.936 23.872 117.616 23.936C117.146 24.256 116.613 24.416 116.016 24.416H115.664C115.557 24.4373 115.408 24.448 115.216 24.448C115.045 24.448 114.917 24.4373 114.832 24.416L114.256 24.384L113.424 23.584L112.816 22.784L112.56 22.112L112.336 20.832L112.464 19.904L112.784 18.816L112.72 18.464L113.008 17.472L113.296 16.896C113.381 16.6187 113.424 16.288 113.424 15.904L114.128 14.592C114.192 14.4213 114.352 14.24 114.608 14.048L114.928 13.504L115.312 13.088C115.397 12.8107 115.568 12.5653 115.824 12.352C115.994 12.2667 116.112 12.1067 116.176 11.872C116.261 11.6373 116.666 11.424 117.392 11.232L117.232 11.264L117.392 11.2C117.456 11.0933 117.605 10.88 117.84 10.56L118.224 10.624L118.512 10.432C118.853 10.1333 119.216 9.984 119.6 9.984H119.824L120.656 9.664L121.136 9.824H121.712L122.064 10.016C122.277 10.0373 122.448 10.1333 122.576 10.304L123.024 10.752L123.152 10.816L123.216 10.944L123.504 11.392L123.536 11.552L123.44 12.064L123.504 12.416L123.088 13.056L122.16 13.184L121.68 12.416L121.232 12.256L121.008 12.032H120.688C120.581 12.0747 120.357 12.1813 120.016 12.352L119.984 12.608H119.184C118.97 12.928 118.736 13.0987 118.48 13.12C118.352 13.2053 118.224 13.28 118.096 13.344L117.84 13.952L117.616 13.984L117.584 14.272H117.136L116.72 14.944L116.368 15.168L116.24 15.616L115.76 16.288L115.696 16.928L115.312 17.312L114.96 18.688L114.704 18.944L114.736 19.296L114.352 20.512L114.448 20.896L114.416 21.28C114.565 21.4933 114.64 21.7173 114.64 21.952L114.864 22.016L114.96 22.208C115.322 22.208 115.557 22.2507 115.664 22.336C115.856 22.1867 116.378 22.0267 117.232 21.856C117.36 21.5573 117.541 21.344 117.776 21.216C118.01 21.0667 118.49 20.8 119.216 20.416L119.312 20.448C119.312 20.2773 119.376 20.1173 119.504 19.968C119.824 19.84 120.016 19.7547 120.08 19.712C120.25 19.6053 120.346 19.4667 120.368 19.296L120.88 19.168L121.2 18.88L122 17.792L122.224 17.92C122.245 17.856 122.48 17.568 122.928 17.056L123.696 16.16L123.76 15.744C124.016 15.5093 124.314 14.8267 124.656 13.696L124.496 13.024L124.24 12.576L124.432 12.096L124.176 11.744L124.112 11.296L124.016 10.976L124.336 10.4C124.677 10.2293 124.922 10.144 125.072 10.144C125.264 10.144 125.52 10.24 125.84 10.432L126.064 10.848L126.48 11.168L126.544 11.872C126.608 12.064 126.682 12.352 126.768 12.736C126.874 12.928 126.928 13.152 126.928 13.408V13.632L126.992 13.824L127.344 14.336L127.248 14.912L127.44 15.168C127.504 15.3173 127.536 15.4773 127.536 15.648C127.536 15.7973 127.525 15.9147 127.504 16L127.792 16.096L127.568 16.896L127.696 17.504C127.802 17.7173 127.856 17.9093 127.856 18.08C127.856 18.2507 127.802 18.464 127.696 18.72L127.888 18.88L128.176 20.032ZM165.888 19.712L165.792 20.448L165.472 21.504L164.864 22.88C164.778 22.944 164.672 23.1147 164.544 23.392C164.416 23.6693 164.234 23.872 164 24L163.648 24.448C163.434 24.448 163.296 24.4587 163.232 24.48L163.2 24.576C163.008 24.832 162.752 24.96 162.432 24.96H162.304L162.016 24.768H161.92L161.504 25.12L161.12 24.96L160.832 25.12C160.49 24.9493 160.309 24.8533 160.288 24.832C160.16 24.8533 159.882 24.9707 159.456 25.184C159.37 24.8427 159.136 24.672 158.752 24.672C158.517 24.672 158.272 24.7147 158.016 24.8L157.376 24.544L156.832 24.8L156.416 24.448L156.064 24.672L155.36 24.224L153.952 24.096L153.536 23.936C152.896 23.9147 152.33 23.8293 151.84 23.68C151.818 23.6587 151.765 23.648 151.68 23.648C151.637 23.648 151.552 23.6693 151.424 23.712C151.296 23.7333 151.189 23.744 151.104 23.744C150.954 23.744 150.805 23.7013 150.656 23.616L149.888 23.648L149.376 23.36L148.064 23.2H147.552L146.336 22.912L146.016 23.04L145.856 22.912L145.6 22.944L145.376 22.912C145.12 22.9547 144.938 22.976 144.832 22.976C144.64 22.976 144.458 22.944 144.288 22.88L143.584 22.816C143.541 22.816 143.413 22.7947 143.2 22.752L142.848 22.944L142.72 22.88C142.229 23.072 141.834 23.1787 141.536 23.2L140.576 23.936L140.064 23.744H139.36L139.168 23.232L138.816 22.784V22.08L139.008 21.696H139.296V21.376H139.424L139.552 21.28L139.616 21.376L140.032 20.96L140.799 20.736C141.184 20.352 141.61 20.064 142.08 19.872L142.336 19.616H142.496L142.624 19.2H143.104C143.189 19.1147 143.242 19.0293 143.264 18.944L143.712 18.4L143.776 18.144C144.117 18.1013 144.362 18.0693 144.512 18.048C144.704 17.7493 144.96 17.5893 145.28 17.568L145.696 17.152L146.272 16.512L146.976 16.224L147.008 15.84C147.349 15.52 147.701 15.2747 148.064 15.104L148 15.168L148.256 15.072L148.928 14.208L149.408 14.176L149.6 14.016L149.792 13.632L149.952 13.568C150.25 13.2693 150.538 13.0987 150.816 13.056C150.88 12.9493 150.965 12.864 151.072 12.8L151.232 12.352L151.616 12.256L151.648 12.16L152 12.096L152.544 11.36L153.12 11.008L153.312 10.496L153.728 10.24L154.304 9.6L154.272 9.504C154.058 9.632 153.792 9.696 153.472 9.696H153.312L153.088 9.536L152.576 9.6L152.32 9.504C152.213 9.52533 151.914 9.536 151.424 9.536L150.592 9.856L150.272 9.536L149.6 9.6C149.557 9.6 149.493 9.6 149.408 9.6C149.322 9.62133 149.258 9.632 149.216 9.632C148.938 9.632 148.704 9.58933 148.512 9.504L147.584 9.856L147.36 9.696L147.135 9.824L146.656 9.632C146.506 9.73867 146.357 9.792 146.208 9.792C146.08 9.792 145.952 9.76 145.824 9.696L145.568 9.888L145.152 9.568L144.864 9.856L144.032 9.6L143.744 9.696C142.741 9.632 142.24 8.96 142.24 7.68L143.136 7.136C143.434 7.15733 143.84 7.168 144.352 7.168C144.821 7.168 145.152 7.15733 145.344 7.136L145.568 7.232L146.208 7.072L147.776 7.264L148.095 7.072L148.96 7.104L149.024 7.296L149.12 7.168C149.226 7.168 149.312 7.17867 149.376 7.2L149.664 7.04L150.304 7.168L150.944 6.944L151.456 7.2H152.384L152.992 7.072L153.248 7.2C153.354 7.17867 153.514 7.168 153.728 7.168C154.069 7.168 154.336 7.17867 154.528 7.2H154.656L154.784 7.296C154.976 7.168 155.136 7.104 155.264 7.104L156.128 7.2C156.576 7.11467 156.981 7.072 157.344 7.072C157.45 6.96533 157.578 6.90133 157.728 6.88C157.856 6.752 158.026 6.688 158.24 6.688C158.282 6.688 158.41 6.70933 158.624 6.752C159.285 7.136 159.648 7.68 159.712 8.384L159.424 8.96L158.432 9.248L158.176 9.504C158.09 9.568 157.984 9.6 157.856 9.6H157.728L157.6 9.984L157.312 10.112L156.767 10.624L156.128 11.008L156 11.232L155.424 11.808L155.04 12.416L154.624 12.48L154.432 12.864L154.048 13.056V13.472H154.144L152.96 14.08V14.336C152.533 14.5067 152.224 14.6453 152.032 14.752C151.946 15.0933 151.712 15.328 151.328 15.456L151.2 15.776L150.656 16L150.464 16.16L150.176 16.64H149.376L149.216 16.8C149.109 17.2267 148.8 17.568 148.288 17.824L148.224 17.856V17.984L147.648 18.368L147.776 18.336L147.456 18.496L147.072 18.72L147.104 18.624L146.848 18.72L145.984 19.776L144.864 20.416L144.8 20.544L145.568 20.512L147.264 20.608V20.64C147.264 20.6827 147.306 20.7253 147.392 20.768C147.477 20.7893 147.53 20.832 147.552 20.896C147.68 20.9387 147.754 20.96 147.776 20.96C147.754 20.96 147.914 20.9387 148.256 20.896L149.024 20.8C149.322 20.8213 149.578 20.96 149.792 21.216C149.92 21.1947 150.144 21.184 150.464 21.184C150.826 21.184 151.285 21.2907 151.84 21.504L152.128 21.472L152.576 21.6L152.928 21.376L153.248 21.632C153.738 21.6747 154.229 21.728 154.72 21.792C155.125 21.8347 155.392 21.92 155.52 22.048L155.583 22.08L157.728 22.144L158.528 22.336L159.968 22.4L160.384 22.528L161.696 22.432C161.909 22.4107 162.048 22.3893 162.112 22.368C162.176 22.3253 162.24 22.208 162.304 22.016L162.816 21.696L163.2 20.992L163.36 19.904L163.648 19.616C164.032 19.0613 164.405 18.784 164.768 18.784C165.045 18.784 165.29 18.88 165.504 19.072C165.738 19.2427 165.866 19.456 165.888 19.712ZM174.599 2.368C174.599 2.624 174.428 2.85867 174.087 3.072V3.136C173.681 3.62667 173.329 3.904 173.031 3.968L172.551 4.544L172.231 4.96L171.495 5.152L171.175 5.6L170.663 5.856L169.831 6.592L169.319 6.112L169.415 5.312L169.767 4.736C169.788 4.43733 169.959 4.18133 170.279 3.968V3.84L170.471 3.712L170.503 3.232L171.015 3.104V2.816L171.399 2.752C171.484 2.32533 171.665 2.016 171.943 1.824L172.039 1.76L172.231 1.568L172.487 0.799999C173.895 1.14133 174.599 1.664 174.599 2.368ZM177.863 19.328C177.863 19.8187 177.777 20.128 177.607 20.256L177.447 20.384L177.287 20.832L176.775 20.992C176.625 21.3333 176.401 21.6 176.103 21.792L175.815 21.888L175.399 22.336L175.015 22.432C174.865 22.816 174.556 23.0187 174.087 23.04C174.044 23.104 173.948 23.232 173.799 23.424C173.479 23.6373 173.148 23.7653 172.807 23.808L172.647 23.84L172.423 24.128H171.783L171.271 24.512L169.959 23.552L169.351 22.304L169.319 20.736L169.191 20.352L169.575 17.536L169.703 17.408C169.639 17.088 169.607 16.7787 169.607 16.48C169.607 16.288 169.671 15.8933 169.799 15.296L169.959 14.56C169.916 14.432 169.831 14.2933 169.703 14.144L169.895 13.536L169.959 12.8L170.023 12.704C169.937 12.512 169.884 12.2987 169.863 12.064C169.884 12.0213 169.905 11.968 169.927 11.904C169.948 11.8187 169.959 11.7547 169.959 11.712C169.895 11.52 169.863 11.3387 169.863 11.168C169.863 10.656 170.151 10.4213 170.727 10.464L171.111 10.496C171.367 10.368 171.527 10.304 171.591 10.304C172.017 10.304 172.305 10.5387 172.455 11.008V11.136C172.54 11.392 172.583 11.6373 172.583 11.872C172.583 12.064 172.561 12.2027 172.519 12.288L172.295 13.888L172.519 14.336C172.519 14.72 172.391 15.0613 172.135 15.36L172.263 15.744L171.847 16.96C171.804 17.4933 171.751 17.8987 171.687 18.176V18.976L171.495 19.424L171.527 19.744L171.463 20.48L171.527 21.056L172.007 21.44L172.391 21.376L172.455 21.28L172.711 21.312L173.127 21.184L173.479 20.832L173.607 20.64L173.831 20.608L173.895 20.448L173.991 20.32L174.183 20.448L174.503 20.128L174.695 20.16L174.759 19.936H174.823L174.919 19.68L175.207 19.552L175.815 19.264C176.305 18.9227 176.785 18.752 177.255 18.752H177.383C177.617 18.9013 177.777 19.0933 177.863 19.328ZM192.011 19.264L191.627 20.224L191.883 20.864L191.755 21.056L191.627 21.568L191.371 22.016L191.243 22.08L191.179 22.688L190.603 22.752C190.304 23.0293 189.995 23.2533 189.675 23.424L189.483 23.392L189.003 23.552L188.715 23.584L188.107 23.808L187.403 23.488L187.307 23.424L186.763 23.456L186.891 23.52L185.995 23.392L185.195 23.584L184.875 23.296L184.203 23.36L183.947 23.168C183.925 23.168 183.84 23.1787 183.691 23.2V23.392C183.691 23.584 183.659 23.776 183.595 23.968L183.691 24.576L183.435 24.896C183.477 25.3653 183.499 25.7173 183.499 25.952L183.403 26.752L183.531 27.968L183.275 28.288L183.403 28.768L183.307 29.088L183.499 29.184V29.664C183.541 29.792 183.563 29.888 183.563 29.952C183.563 30.144 183.445 30.304 183.211 30.432L183.339 30.88L183.179 31.136L183.115 32.416C183.051 33.9093 182.72 34.656 182.123 34.656C181.995 34.656 181.621 34.5707 181.003 34.4L181.099 33.44L180.907 32.032L181.227 31.456L181.259 30.752L181.131 29.792L181.387 29.376L181.099 28.64L181.323 28.256L181.131 27.616L181.387 27.04C181.344 26.912 181.259 26.7947 181.131 26.688C181.024 26.5813 180.971 26.5067 180.971 26.464C180.971 26.4 181.045 26.336 181.195 26.272C181.173 26.208 181.163 26.1013 181.163 25.952C181.163 25.6747 181.227 25.312 181.355 24.864L181.163 24.544L181.259 24.128L181.035 23.84L181.323 23.488L181.195 22.56L181.387 21.248L181.163 20.832L181.515 20.224L181.131 19.872L181.355 19.264L181.131 19.104L181.163 18.56L181.355 17.888V17.76L181.387 17.632V17.28L181.419 17.152L181.259 16.64L181.419 16.096L181.259 15.68L181.387 15.2L181.259 15.072L181.355 14.432L181.259 14.08L181.323 13.76L181.227 13.536L180.075 14.048V13.856L179.851 13.888L179.499 14.208H179.211L178.827 14.72L178.507 14.592L178.347 14.912C177.301 14.2933 176.779 13.8027 176.779 13.44C176.779 13.184 176.875 12.9707 177.067 12.8L177.035 12.32C177.632 11.9787 178.197 11.7973 178.731 11.776L178.955 11.552L179.979 11.136L180.203 10.912L181.099 10.976L181.259 10.912L181.547 9.792L182.315 9.952L182.827 10.784L183.115 10.496L183.691 10.912C183.968 10.912 184.235 10.9653 184.491 11.072L184.651 11.36L184.875 11.264L185.131 11.456C185.28 11.456 185.397 11.4667 185.483 11.488L185.451 11.68L186.155 11.456L186.507 11.84L187.115 12.032L187.531 12.544L188.299 13.024L188.331 13.088L188.939 13.28V13.472C189.109 13.6 189.237 13.7707 189.323 13.984L189.579 14.144L189.771 14.496H190.155V15.136L190.379 15.36L190.443 15.584L190.763 15.648C190.805 16.1387 190.944 16.5547 191.179 16.896V17.12L191.499 17.44L191.435 17.952L191.691 18.528L191.787 19.2L192.011 19.264ZM189.611 19.744L189.579 19.584L189.611 19.456L189.419 18.88L189.547 18.592L189.419 18.336L189.387 18.016L189.131 17.504L189.003 17.152L188.523 16.32L188.139 16L187.915 15.456L187.627 15.328L187.115 14.656L186.603 14.72L186.219 14.208L185.899 14.272L185.675 13.856L185.547 13.824H185.099L184.779 13.984L184.523 13.728L184.203 13.792L184.075 13.568L183.499 13.472L183.531 13.856L183.467 14.464L183.595 14.816L184.043 15.232L183.691 16L183.723 16.48L183.563 17.44C183.627 17.8453 183.755 18.1867 183.947 18.464L183.819 18.816C183.84 18.8373 183.851 18.8587 183.851 18.88C183.851 18.944 183.765 19.04 183.595 19.168L183.819 19.456L183.659 19.84L183.595 20.256L183.691 20.704L183.659 21.12H184.331C184.416 21.0773 184.533 21.056 184.683 21.056C184.875 21.056 185.045 21.12 185.195 21.248C185.216 21.248 185.259 21.2373 185.323 21.216C185.365 21.216 185.397 21.216 185.419 21.216C185.483 21.216 185.6 21.2373 185.771 21.28C185.899 21.216 186.016 21.184 186.123 21.184C186.293 21.184 186.453 21.2267 186.603 21.312H186.891L187.147 21.376L187.787 21.184L188.299 21.504C188.491 21.568 188.565 21.6 188.523 21.6L189.131 20.992L189.195 20.544L189.355 20.48L189.259 20.224L189.483 19.968L189.611 19.744Z" fill="#17002B"/>
</svg>
