<svg width="16" height="16" viewBox="0 0 16 16" fill="none" xmlns="http://www.w3.org/2000/svg">
<path d="M0 14.8867V12.4867C0 12.3133 0.0266667 12.1467 0.08 11.9867C0.133333 11.8267 0.213333 11.6733 0.32 11.5267L7 2.52667L6.08 1.28667C6.01333 1.19333 5.96667 1.09653 5.94 0.996267C5.91333 0.896534 5.90667 0.796534 5.92 0.696267C5.93333 0.596534 5.96667 0.5 6.02 0.406667C6.07333 0.313333 6.14667 0.233333 6.24 0.166667C6.42667 0.0333333 6.62667 -0.02 6.84 0.00666667C7.05333 0.0333333 7.22667 0.14 7.36 0.326667L8 1.18667L8.64 0.326667C8.77333 0.14 8.94667 0.0333333 9.16 0.00666667C9.37333 -0.02 9.57333 0.0333333 9.76 0.166667C9.94667 0.3 10.0533 0.473333 10.08 0.686667C10.1067 0.9 10.0533 1.1 9.92 1.28667L9 2.52667L15.68 11.5267C15.7867 11.6733 15.8667 11.8267 15.92 11.9867C15.9733 12.1467 16 12.3133 16 12.4867V14.8867C16 15.1133 15.9232 15.3032 15.7696 15.4563C15.6165 15.6099 15.4267 15.6867 15.2 15.6867H0.8C0.573333 15.6867 0.383467 15.6099 0.2304 15.4563C0.0767999 15.3032 0 15.1133 0 14.8867ZM8 3.86667L1.6 12.4867V14.0867H4L7.34 9.40667C7.5 9.18 7.72 9.06667 8 9.06667C8.28 9.06667 8.5 9.18 8.66 9.40667L12 14.0867H14.4V12.4867L8 3.86667ZM5.96 14.0867H10.04L8 11.2467L5.96 14.0867Z" fill="black"/>
</svg>
