<svg width="16" height="16" viewBox="0 0 16 16" fill="none" xmlns="http://www.w3.org/2000/svg">
<path d="M0 11.4305V0.8283C0 0.593615 0.0767999 0.396757 0.2304 0.237723C0.383467 0.0792416 0.573333 0 0.8 0H11.2C11.4267 0 11.6165 0.0792416 11.7696 0.237723C11.9232 0.396757 12 0.593615 12 0.8283V8.283C12 8.51769 11.9232 8.71427 11.7696 8.87275C11.6165 9.03179 11.4267 9.1113 11.2 9.1113H3.2L0.68 11.7204C0.546667 11.8585 0.4 11.893 0.24 11.824C0.08 11.755 0 11.6238 0 11.4305ZM4 13.2528C3.77333 13.2528 3.5832 13.1733 3.4296 13.0143C3.27653 12.8558 3.2 12.6592 3.2 12.4245V10.7679H13.6V3.3132H15.2C15.4267 3.3132 15.6165 3.39244 15.7696 3.55092C15.9232 3.70996 16 3.90682 16 4.1415V15.572C16 15.7653 15.92 15.8965 15.76 15.9655C15.6 16.0345 15.4533 16 15.32 15.8619L12.8 13.2528H4ZM10.4 1.6566H1.6V7.4547H10.4V1.6566Z" fill="black"/>
</svg>
