<svg width="16" height="15" viewBox="0 0 16 15" fill="none" xmlns="http://www.w3.org/2000/svg">
<path d="M7.76224 1.15881C7.83707 0.928485 8.16293 0.928486 8.23776 1.15881L9.30733 4.45061C9.54161 5.17165 10.2135 5.65983 10.9717 5.65983H14.4329C14.6751 5.65983 14.7758 5.96973 14.5798 6.11208L11.7797 8.14653C11.1663 8.59215 10.9097 9.38205 11.1439 10.1031L12.2135 13.3949C12.2883 13.6252 12.0247 13.8167 11.8288 13.6744L9.02862 11.6399C8.41527 11.1943 7.58473 11.1943 6.97138 11.6399L4.17121 13.6744L4.61204 14.2812L4.17121 13.6744C3.97528 13.8167 3.71166 13.6252 3.7865 13.3949L4.85607 10.1031C5.09035 9.38205 4.83369 8.59215 4.22034 8.14653L1.42017 6.11208C1.22424 5.96973 1.32494 5.65983 1.56712 5.65983H5.02832C5.78646 5.65983 6.45839 5.17165 6.69267 4.45061L7.76224 1.15881Z" stroke="black" stroke-width="1.5"/>
</svg>
